<svg xmlns="http://www.w3.org/2000/svg" xmlns:xlink="http://www.w3.org/1999/xlink" x="0" y="0" version="1.1" viewBox="0 0 48 48" ><g fill="none" stroke="none" stroke-width="1" stroke-linecap="butt" stroke-linejoin="miter" stroke-miterlimit="10" stroke-dasharray="" stroke-dashoffset="0" font-family="sans-serif" font-weight="normal" font-size="12" text-anchor="start" mix-blend-mode="normal"><g><g><path d="M0,48l0,-48l48,0l0,48z" fill="none"/><g><path d="M43,40c0,0.553 -0.447,1 -1,1l-36,0c-0.553,0 -1,-0.447 -1,-1l0,-32c0,-0.553 0.447,-1 1,-1l36,0c0.553,0 1,0.447 1,1z" fill="#bbdefb"/><path d="M16,29l-7,0l0,7l7,0l0,-7z" fill="#64b5f6"/><g fill="#1976d2"><rect x="9" y="15" transform="scale(1,1)" width="8" height="2"/><rect x="9" y="22" transform="scale(1,1)" width="8" height="2"/><rect x="19" y="31" transform="scale(1,1)" width="20" height="2"/></g><g><path d="M39,17c0,0.552 -0.447,1 -1,1l-16,0c-0.552,0 -1,-0.448 -1,-1l0,-2c0,-0.552 0.448,-1 1,-1l16,0c0.553,0 1,0.448 1,1z" fill="#ffffff"/><path d="M39,24c0,0.552 -0.447,1 -1,1l-16,0c-0.552,0 -1,-0.448 -1,-1l0,-2c0,-0.552 0.448,-1 1,-1l16,0c0.553,0 1,0.448 1,1z" fill="#ffffff"/><rect x="11" y="31" transform="scale(1,1)" width="3" height="3" fill="#fafafa"/></g></g><g><g><path d="M47.86286,37.86286c0,5.5 -4.5,10 -10,10c-5.5,0 -10,-4.5 -10,-10c0,-5.5 4.5,-10 10,-10c5.5,0 10,4.5 10,10" fill="#43a047"/><path d="M43.86286,35.86286l-4,0l0,-4l-4,0l0,4l-4,0l0,4l4,0l0,4l4,0l0,-4l4,0z" fill="#ffffff"/></g><path d="M27.02857,37.86286c0,-5.98361 4.85067,-10.83429 10.83429,-10.83429c5.98361,0 10.83429,4.85067 10.83429,10.83429c0,5.98361 -4.85067,10.83429 -10.83429,10.83429c-5.98361,0 -10.83429,-4.85067 -10.83429,-10.83429z" fill="#ff0000" opacity="0"/></g></g></g></g></svg>