<svg xmlns="http://www.w3.org/2000/svg" xmlns:xlink="http://www.w3.org/1999/xlink" x="0" y="0" version="1.1" viewBox="0 0 48 48" ><g fill="none" stroke="none" stroke-width="1" stroke-linecap="butt" stroke-linejoin="miter" stroke-miterlimit="10" stroke-dasharray="" stroke-dashoffset="0" font-family="sans-serif" font-weight="normal" font-size="12" text-anchor="start" mix-blend-mode="normal"><g><g><path d="M0,48l0,-48l48,0l0,48z" fill="none"/><g><path d="M42,37c0,2.762 -2.238,5 -5,5l-26,0c-2.762,0 -5,-2.238 -5,-5l0,-26c0,-2.762 2.238,-5 5,-5l26,0c2.762,0 5,2.238 5,5z" fill="#2196f3"/><path d="M14,17l0,17l20,0l0,-17z M32,32l-16,0l0,-10l16,0z" fill="#e1f5fe"/></g><g><g><path d="M48,38c0,5.5 -4.5,10 -10,10c-5.5,0 -10,-4.5 -10,-10c0,-5.5 4.5,-10 10,-10c5.5,0 10,4.5 10,10" fill="#43a047"/><path d="M44,36l-4,0l0,-4l-4,0l0,4l-4,0l0,4l4,0l0,4l4,0l0,-4l4,0z" fill="#ffffff"/></g><path d="M27.16571,38c0,-5.98361 4.85067,-10.83429 10.83429,-10.83429c5.98361,0 10.83429,4.85067 10.83429,10.83429c0,5.98361 -4.85067,10.83429 -10.83429,10.83429c-5.98361,0 -10.83429,-4.85067 -10.83429,-10.83429z" fill="#ff0000" opacity="0"/></g></g></g></g></svg>