<?xml version="1.0" encoding="utf-8"?><!-- Generator: Adobe Illustrator 15.0.0, SVG Export Plug-In . SVG Version: 6.00 Build 0)  --><!DOCTYPE svg PUBLIC "-//W3C//DTD SVG 1.1//EN" "http://www.w3.org/Graphics/SVG/1.1/DTD/svg11.dtd"><svg xmlns="http://www.w3.org/2000/svg" xmlns:xlink="http://www.w3.org/1999/xlink" version="1.1" x="0px" y="0px"  viewBox="0 0 48 48" enable-background="new 0 0 48 48" xml:space="preserve">
<path fill="#BBDEFB" d="M43,40c0,0.553-0.447,1-1,1H6c-0.553,0-1-0.447-1-1V8c0-0.553,0.447-1,1-1h36c0.553,0,1,0.447,1,1V40z"/>
<path fill="#64B5F6" d="M16,29H9v7h7V29L16,29z"/>
<g>
	<rect x="9" y="15" fill="#1976D2" width="8" height="2"/>
	<rect x="9" y="22" fill="#1976D2" width="8" height="2"/>
	<rect x="19" y="31" fill="#1976D2" width="20" height="2"/>
</g>
<g>
	<path fill="#FFFFFF" d="M39,17c0,0.552-0.447,1-1,1H22c-0.552,0-1-0.448-1-1v-2c0-0.552,0.448-1,1-1h16c0.553,0,1,0.448,1,1V17z"/>
	<path fill="#FFFFFF" d="M39,24c0,0.552-0.447,1-1,1H22c-0.552,0-1-0.448-1-1v-2c0-0.552,0.448-1,1-1h16c0.553,0,1,0.448,1,1V24z"/>
	<rect x="11" y="31" fill="#FAFAFA" width="3" height="3"/>
</g>
</svg>