<svg xmlns="http://www.w3.org/2000/svg" xmlns:xlink="http://www.w3.org/1999/xlink" x="0" y="0" version="1.1" viewBox="0 0 48 48" ><g fill="none" stroke="none" stroke-width="1" stroke-linecap="butt" stroke-linejoin="miter" stroke-miterlimit="10" stroke-dasharray="" stroke-dashoffset="0" font-family="sans-serif" font-weight="normal" font-size="12" text-anchor="start" mix-blend-mode="normal"><g><g><path d="M0,48l0,-48l48,0l0,48z" fill="none"/><g><path d="M36,42l-24,0c-3.314,0 -6,-2.686 -6,-6l0,-24c0,-3.314 2.686,-6 6,-6l24,0c3.314,0 6,2.686 6,6l0,24c0,3.314 -2.686,6 -6,6z" fill="#c8e6c9"/><path d="M34.585,14.586l-13.571,13.586l-5.601,-5.588l-2.826,2.832l8.432,8.412l16.396,-16.414z" fill="#4caf50"/></g><g><g><path d="M48,38c0,5.5 -4.5,10 -10,10c-5.5,0 -10,-4.5 -10,-10c0,-5.5 4.5,-10 10,-10c5.5,0 10,4.5 10,10" fill="#43a047"/><path d="M44,36l-4,0l0,-4l-4,0l0,4l-4,0l0,4l4,0l0,4l4,0l0,-4l4,0z" fill="#ffffff"/></g><path d="M27.16571,38c0,-5.98361 4.85067,-10.83429 10.83429,-10.83429c5.98361,0 10.83429,4.85067 10.83429,10.83429c0,5.98361 -4.85067,10.83429 -10.83429,10.83429c-5.98361,0 -10.83429,-4.85067 -10.83429,-10.83429z" fill="#ff0000" opacity="0"/></g></g></g></g></svg>