<?xml version="1.0" encoding="utf-8"?><!-- Generator: Adobe Illustrator 15.0.0, SVG Export Plug-In . SVG Version: 6.00 Build 0)  --><!DOCTYPE svg PUBLIC "-//W3C//DTD SVG 1.1//EN" "http://www.w3.org/Graphics/SVG/1.1/DTD/svg11.dtd"><svg xmlns="http://www.w3.org/2000/svg" xmlns:xlink="http://www.w3.org/1999/xlink" version="1.1" x="0px" y="0px"  viewBox="0 0 48 48" enable-background="new 0 0 48 48" xml:space="preserve">
<path fill="#9C27B0" d="M10,42h28c2.209,0,4-1.791,4-4V10c0-2.209-1.791-4-4-4H10c-2.209,0-4,1.791-4,4v28C6,40.209,7.791,42,10,42"/>
<rect x="8" y="16" fill="#FFFFFF" width="32" height="17"/>
<g>
	<path fill="#4A148C" d="M14.146,29.571l-0.131-0.521c1.171-0.13,1.171-0.26,0.91-1.43l-0.91-3.77   c-0.26-1.041-0.26-1.041-1.43-1.301l-0.129-0.39c0.908-0.13,1.689-0.391,2.338-0.649l1.562,6.239c0.26,1.17,0.52,1.3,1.689,1.431   l0.13,0.521h-4.029V29.571z M12.456,19.04c-0.132-0.521,0.259-0.91,0.778-0.91c0.521,0,1.04,0.39,1.17,0.91   c0.13,0.52-0.13,0.91-0.649,0.91C13.234,19.95,12.585,19.56,12.456,19.04z"/>
	<path fill="#4A148C" d="M25.847,25.67c-0.522,1.301-1.561,2.341-2.602,2.601c-2.211,0.52-4.03-1.17-4.55-3.12   c-0.39-1.43,0-2.86,0.91-4.03c0.779-0.909,1.819-1.561,2.469-1.69c0.781-0.13,1.302,0,1.691,0.13s0.39,0.262,0.521,0.521   c0.13,0.391-0.261,0.909-0.392,0.909c-0.129,0-0.129,0-0.39-0.13c-0.649-0.389-1.3-0.521-1.949-0.389   c-1.171,0.259-1.95,1.56-1.561,3.51c0.65,2.601,2.469,3.12,3.51,2.86c0.781-0.131,1.301-0.521,1.951-1.561L25.847,25.67z"/>
	<path fill="#4A148C" d="M35.855,20.989c-0.129,0.521-0.52,1.171-1.04,1.561c-0.259,0.132-0.91,0.65-1.95,1.301   c1.171,0.779,2.08,1.689,1.56,3.509C33.517,29.701,30.787,31,29.095,31c-2.079,0-3.38-1.299-2.73-3.38   c0.262-0.91,0.911-1.43,1.561-1.95c0.392-0.259,1.302-0.78,2.21-1.3c-1.04-0.781-1.56-1.688-1.17-3.119   C29.485,19.689,31.436,18,33.517,18C35.465,18,36.376,19.43,35.855,20.989z M32.476,27.88c0.52-1.561-0.65-2.34-1.95-3.119   c-1.17,0.65-2.209,1.689-2.469,2.729c-0.652,1.821,0.26,2.861,1.559,2.861C30.787,30.351,31.956,29.44,32.476,27.88z    M30.655,20.729c-0.521,1.431,0.52,2.08,1.689,2.859c0.911-0.52,1.691-1.299,2.08-2.469c0.521-1.69-0.26-2.47-1.169-2.47   C31.956,18.65,30.915,19.689,30.655,20.729z"/>
</g>
<g>
	<polygon fill="#F3E5F5" points="18.414,8 15.586,8 8,15.586 8,16 10.414,16  "/>
	<polygon fill="#F3E5F5" points="28.414,16 36.414,8 33.586,8 25.586,16  "/>
	<path fill="#F3E5F5" d="M40.62,41h0.294L41,40.914V40.62C40.882,40.756,40.756,40.882,40.62,41z"/>
	<polygon fill="#F3E5F5" points="24.414,8 21.586,8 13.586,16 16.414,16  "/>
	<path fill="#F3E5F5" d="M41,7.38V7h-0.38C40.756,7.119,40.882,7.244,41,7.38z"/>
	<path fill="#F3E5F5" d="M8,12.414L12.414,8H10C9.834,8,9.676,8.026,9.521,8.064L8.064,9.521C8.026,9.676,8,9.834,8,10V12.414z"/>
	<polygon fill="#F3E5F5" points="40,16 40,13.586 37.586,16  "/>
	<path fill="#F3E5F5" d="M34.414,16L40,10.414V10c0-0.657-0.322-1.236-0.813-1.601L31.586,16H34.414z"/>
	<polygon fill="#F3E5F5" points="10.086,33 8,35.086 8,37.914 12.914,33  "/>
	<polygon fill="#F3E5F5" points="34.086,33 27.086,40 29.914,40 36.914,33  "/>
	<polygon fill="#F3E5F5" points="40,33.086 33.086,40 35.914,40 40,35.914  "/>
	<polygon fill="#F3E5F5" points="28.086,33 21.086,40 23.914,40 30.914,33  "/>
	<path fill="#F3E5F5" d="M10,40h1.914l7-7h-2.828l-6.848,6.848C9.474,39.945,9.73,40,10,40z"/>
	<polygon fill="#F3E5F5" points="22.414,16 30.414,8 27.586,8 19.586,16  "/>
	<polygon fill="#F3E5F5" points="22.086,33 15.086,40 17.914,40 24.914,33  "/>
</g>
</svg>