<?xml version="1.0" encoding="utf-8"?><!-- Generator: Adobe Illustrator 15.0.0, SVG Export Plug-In . SVG Version: 6.00 Build 0)  --><!DOCTYPE svg PUBLIC "-//W3C//DTD SVG 1.1//EN" "http://www.w3.org/Graphics/SVG/1.1/DTD/svg11.dtd"><svg xmlns="http://www.w3.org/2000/svg" xmlns:xlink="http://www.w3.org/1999/xlink" version="1.1" x="0px" y="0px"  viewBox="0 0 48 48" enable-background="new 0 0 48 48" xml:space="preserve">
<path fill="#FFFFFF" d="M5.995,24c0,0,8.06-11,18.004-11s17.996,11,17.996,11S33.944,35,24,35S5.995,24,5.995,24z"/>
<path fill="#CFD8DC" d="M24,13c9.945,0,17.996,11,17.996,11S33.944,35,24,35S5.995,24,5.995,24S14.055,13,24,13 M24,11  C13.165,11,4.735,22.335,4.382,22.818L3.516,24l0.866,1.182C4.735,25.665,13.165,37,24,37s19.256-11.336,19.61-11.818L44.474,24  l-0.864-1.181C43.256,22.336,34.834,11,24,11L24,11z"/>
<path fill="#00ACC1" d="M15,23.953c0-4.971,4.034-8.994,9-8.994c4.967,0,9,4.023,9,8.994c0,4.977-4.033,9.006-9,9.006  C19.034,32.959,15,28.93,15,23.953z"/>
<path fill="#006064" d="M20,23.958c0-2.213,1.786-3.999,4-3.999c2.203,0,4,1.786,4,3.999c0,2.22-1.797,4.001-4,4.001  C21.786,27.959,20,26.178,20,23.958z"/>
<path fill="#90A4AE" d="M6.025,23.96C6.549,23.26,14.394,13,24,13c9.606,0,17.442,10.26,17.965,10.96h4.958l-1.7-2.322  C44.846,21.121,35.838,9,24,9C12.163,9,3.146,21.12,2.769,21.636L1.065,23.96H6.025z"/>
<rect x="21.586" y="-3.284" transform="matrix(0.7071 -0.7071 0.7071 0.7071 -9.7696 23.5859)" fill="#37474F" width="4" height="53.74"/>
</svg>