<?xml version="1.0" encoding="UTF-8"?>
<svg xmlns="http://www.w3.org/2000/svg" xmlns:xlink="http://www.w3.org/1999/xlink" viewBox="0 0 48 48" version="1.1">
<g id="surface1">
<path style=" fill:#BBDEFB;" d="M 5 39 L 5 15 L 43 15 L 43 39 C 43 41.210938 41.210938 43 39 43 L 9 43 C 6.789063 43 5 41.210938 5 39 "/>
<path style=" fill:#2196F3;" d="M 43 11 L 43 17 L 5 17 L 5 11 C 5 8.789063 6.789063 7 9 7 L 39 7 C 41.210938 7 43 8.789063 43 11 "/>
<path style=" fill:#1565C0;" d="M 36 11 C 36 12.65625 34.65625 14 33 14 C 31.34375 14 30 12.65625 30 11 C 30 9.34375 31.34375 8 33 8 C 34.65625 8 36 9.34375 36 11 "/>
<path style=" fill:#1565C0;" d="M 18 11 C 18 12.65625 16.65625 14 15 14 C 13.34375 14 12 12.65625 12 11 C 12 9.34375 13.34375 8 15 8 C 16.65625 8 18 9.34375 18 11 "/>
<path style=" fill:#B0BEC5;" d="M 33 4 C 31.894531 4 31 4.894531 31 6 L 31 11 C 31 12.105469 31.894531 13 33 13 C 34.105469 13 35 12.105469 35 11 L 35 6 C 35 4.894531 34.105469 4 33 4 "/>
<path style=" fill:#B0BEC5;" d="M 15 4 C 13.894531 4 13 4.894531 13 6 L 13 11 C 13 12.105469 13.894531 13 15 13 C 16.105469 13 17 12.105469 17 11 L 17 6 C 17 4.894531 16.105469 4 15 4 "/>
<path style=" fill:#1565C0;" d="M 35 31.242188 C 35 33.085938 34.585938 34.503906 33.761719 35.503906 C 32.933594 36.503906 31.769531 37 30.265625 37 C 28.75 37 27.578125 36.496094 26.746094 35.492188 C 25.914063 34.488281 25.503906 33.070313 25.503906 31.242188 L 25.503906 28.757813 C 25.503906 26.914063 25.914063 25.496094 26.742188 24.496094 C 27.566406 23.5 28.734375 23 30.246094 23 C 31.757813 23 32.925781 23.503906 33.753906 24.507813 C 34.585938 25.511719 35 26.929688 35 28.765625 Z M 31.847656 28.355469 C 31.847656 27.375 31.71875 26.644531 31.464844 26.160156 C 31.207031 25.679688 30.800781 25.433594 30.246094 25.433594 C 29.703125 25.433594 29.308594 25.660156 29.0625 26.109375 C 28.8125 26.558594 28.683594 27.238281 28.664063 28.148438 L 28.664063 31.628906 C 28.664063 32.648438 28.792969 33.390625 29.050781 33.859375 C 29.304688 34.332031 29.710938 34.566406 30.265625 34.566406 C 30.800781 34.566406 31.199219 34.335938 31.453125 33.878906 C 31.710938 33.417969 31.84375 32.699219 31.851563 31.722656 L 31.851563 28.355469 Z "/>
<path style=" fill:#1565C0;" d="M 16.1875 28.6875 L 17.671875 28.6875 C 18.855469 28.6875 19.441406 28.109375 19.441406 26.960938 C 19.441406 26.511719 19.300781 26.144531 19.023438 25.859375 C 18.742188 25.574219 18.34375 25.433594 17.835938 25.433594 C 17.417969 25.433594 17.054688 25.554688 16.742188 25.796875 C 16.4375 26.039063 16.28125 26.339844 16.28125 26.703125 L 13.128906 26.703125 C 13.128906 25.984375 13.332031 25.347656 13.730469 24.785156 C 14.128906 24.226563 14.679688 23.785156 15.390625 23.472656 C 16.097656 23.160156 16.875 23 17.722656 23 C 19.238281 23 20.429688 23.347656 21.292969 24.039063 C 22.160156 24.730469 22.59375 25.683594 22.59375 26.890625 C 22.59375 27.476563 22.414063 28.03125 22.058594 28.550781 C 21.699219 29.070313 21.175781 29.492188 20.492188 29.820313 C 21.214844 30.082031 21.78125 30.480469 22.191406 31.011719 C 22.605469 31.542969 22.808594 32.203125 22.808594 32.988281 C 22.808594 34.203125 22.339844 35.175781 21.40625 35.90625 C 20.472656 36.636719 19.242188 37 17.722656 37 C 16.828125 37 16.003906 36.828125 15.238281 36.488281 C 14.476563 36.148438 13.898438 35.675781 13.503906 35.078125 C 13.113281 34.476563 12.914063 33.792969 12.914063 33.023438 L 16.085938 33.023438 C 16.085938 33.441406 16.253906 33.800781 16.589844 34.109375 C 16.929688 34.414063 17.34375 34.566406 17.835938 34.566406 C 18.390625 34.566406 18.832031 34.414063 19.160156 34.105469 C 19.492188 33.792969 19.65625 33.402344 19.65625 32.921875 C 19.65625 32.234375 19.484375 31.746094 19.144531 31.460938 C 18.800781 31.175781 18.324219 31.03125 17.722656 31.03125 L 16.1875 31.03125 Z "/>
</g>
</svg>
