<?xml version="1.0"?>
<svg xmlns="http://www.w3.org/2000/svg" xmlns:xlink="http://www.w3.org/1999/xlink" version="1.1" viewBox="0 0 252 252"><g fill="none" fill-rule="nonzero" stroke="none" stroke-width="1" stroke-linecap="butt" stroke-linejoin="miter" stroke-miterlimit="10" stroke-dasharray="" stroke-dashoffset="0" font-family="none" font-weight="none" font-size="none" text-anchor="none" style="mix-blend-mode: normal"><path d="M0,252v-252h252v252z" fill="none"/><g><g id="surface1"><path d="M152.25,120.75h-52.5l-63,-73.5h178.5z" fill="#f57c00"/><path d="M152.25,199.5l-52.5,31.5v-110.25h52.5z" fill="#ff9800"/><path d="M217.875,47.25h-183.75c-4.2041,0 -7.875,-3.6709 -7.875,-7.875c0,-4.2041 3.6709,-7.875 7.875,-7.875h183.75c4.2041,0 7.875,3.6709 7.875,7.875c0,4.2041 -3.6709,7.875 -7.875,7.875z" fill="#ff9800"/></g></g><g><g id="IOS_copy"><path d="M252,199.5c0,28.875 -23.625,52.5 -52.5,52.5c-28.875,0 -52.5,-23.625 -52.5,-52.5c0,-28.875 23.625,-52.5 52.5,-52.5c28.875,0 52.5,23.625 52.5,52.5" fill="#43a047"/><path d="M231,189h-21v-21h-21v21h-21v21h21v21h21v-21h21z" fill="#ffffff"/></g></g></g></svg>
