<?xml version="1.0"?>
<svg xmlns="http://www.w3.org/2000/svg" xmlns:xlink="http://www.w3.org/1999/xlink" version="1.1" viewBox="0 0 252 252"><g fill="none" fill-rule="nonzero" stroke="none" stroke-width="1" stroke-linecap="butt" stroke-linejoin="miter" stroke-miterlimit="10" stroke-dasharray="" stroke-dashoffset="0" font-family="none" font-weight="none" font-size="none" text-anchor="none" style="mix-blend-mode: normal"><path d="M0,252v-252h252v252z" fill="none"/><g fill="#9c27b0"><g id="surface1"><path d="M160.04297,183.75h-64.14844l-11.66894,36.75h-39.86719l64.18945,-189h39.08789l63.94336,189h-39.88769zM106.06641,152.25h43.80469l-21.45117,-68.06543h-0.7793z"/></g></g><g><g id="IOS_copy"><path d="M195.59241,192.84093c-11.53024,-11.53024 -11.53024,-30.3979 0,-41.92813l5.76512,-5.76512c11.53024,-11.53024 30.3979,-11.53024 41.92813,0c11.53024,11.53024 11.53024,29.8738 0.5241,41.92813l-5.76512,5.76512c-12.57844,11.53024 -30.922,11.53024 -42.45224,0zM232.27953,156.67791c-5.24102,-5.24102 -14.15075,-5.24102 -19.39176,0l-5.76512,5.76512c-5.24102,5.24102 -5.24102,14.15075 0,19.39176c5.24102,5.24102 14.15075,5.24102 19.91586,0l5.76512,-5.76512c4.71692,-5.24102 4.71692,-14.15075 -0.5241,-19.39176zM145.27865,243.15469c-11.53024,-11.53024 -11.53024,-30.3979 0,-41.92813l5.76512,-5.76512c11.53024,-11.53024 30.3979,-11.53024 41.92813,0c11.53024,11.53024 11.53024,29.8738 0.5241,41.92813l-5.76512,5.76512c-12.57844,12.05434 -30.922,11.53024 -42.45224,0zM181.96577,206.99168c-5.24102,-5.24102 -14.15075,-5.24102 -19.39176,0l-5.76512,5.76512c-5.24102,5.24102 -5.24102,14.15075 0,19.39176c5.24102,5.24102 14.15075,5.24102 19.91586,0l5.76512,-5.76512c4.71692,-5.24102 4.71692,-14.15075 -0.5241,-19.39176z" fill="#1976d2"/><path d="M170.43553,217.99781c-3.14461,-3.14461 -3.14461,-7.86153 0,-11.00614l36.16302,-36.16302c3.14461,-3.14461 7.86153,-3.14461 11.00614,0c3.14461,3.14461 3.14461,7.86153 0,11.00614l-36.16302,36.16302c-2.62051,3.14461 -7.86153,3.14461 -11.00614,0z" fill="#42a5f5"/></g></g></g></svg>
