<?xml version="1.0" encoding="UTF-8"?>
<svg xmlns="http://www.w3.org/2000/svg" xmlns:xlink="http://www.w3.org/1999/xlink" viewBox="0 0 48 48" version="1.1">
<g id="surface1">
<path style=" fill:#8BC34A;" d="M 11 35 L 37 35 C 43 35 48 30.101563 48 24 C 48 18 43.101563 13 37 13 L 11 13 C 5 13 0 17.898438 0 24 C 0 30.101563 4.898438 35 11 35 Z "/>
<path style=" fill:#C5CAE9;" d="M 48 24 C 48 30.628906 42.628906 36 36 36 C 29.371094 36 24 30.628906 24 24 C 24 17.371094 29.371094 12 36 12 C 42.628906 12 48 17.371094 48 24 Z "/>
<path style=" fill:#689F38;" d="M 24 24 C 24 19.101563 27 14.800781 31.199219 13 L 24.398438 13 C 21.699219 15.898438 20 19.699219 20 24 C 20 28.300781 21.699219 32.101563 24.398438 35 L 31.199219 35 C 27 33.199219 24 28.898438 24 24 Z "/>
<path style=" fill:#9FA8DA;" d="M 36 34 C 41.5 34 46 29.5 46 24 C 46 22.800781 45.800781 21.699219 45.398438 20.699219 L 36 24 L 31.5 32.898438 C 32.898438 33.601563 34.398438 34 36 34 Z M 36 14 C 30.5 14 26 18.5 26 24 C 26 25.199219 26.199219 26.300781 26.601563 27.300781 L 36 24 L 40.5 15.101563 C 39.101563 14.398438 37.601563 14 36 14 Z "/>
</g>
</svg>
