<svg xmlns="http://www.w3.org/2000/svg" viewBox="0 0 48 48">
    <path fill="#3F51B5" d="M42,12.296L40.24,9.13l-4.477,1.345L34.847,6h-3.693l-0.913,4.446l-4.436-1.369l-1.784,3.153l3.34,2.748L24,17.703l1.76,3.166l4.477-1.345L31.153,24h3.693l0.913-4.446l4.434,1.368l1.785-3.153l-3.339-2.748L42,12.296z M37.619,15c0,2.485-2.069,4.499-4.619,4.499S28.381,17.485,28.381,15c0-2.486,2.069-4.5,4.619-4.5S37.619,12.514,37.619,15z"/>
    <path fill="#3F51B5" d="M39.5,15c0-3.59-2.91-6.5-6.5-6.5s-6.5,2.91-6.5,6.5s2.91,6.5,6.5,6.5S39.5,18.59,39.5,15z M36,15c0,1.658-1.344,3-3,3s-3-1.342-3-3c0-1.656,1.344-3,3-3S36,13.344,36,15z"/>
    <g>
        <path fill="#2196F3" d="M28,27.695l-2.15-3.869l-5.47,1.643L19.258,20h-4.516l-1.115,5.435l-5.421-1.673l-2.181,3.854l4.082,3.359L6,34.305l2.15,3.869l5.47-1.644L14.742,42h4.516l1.115-5.434l5.42,1.672l2.18-3.854l-4.081-3.359L28,27.695z M22.644,31c0,3.038-2.526,5.5-5.644,5.5s-5.644-2.462-5.644-5.5s2.526-5.5,5.644-5.5S22.644,27.962,22.644,31z"/>
        <path fill="#2196F3" d="M25,31c0-4.418-3.582-8-8-8s-8,3.582-8,8s3.582,8,8,8S25,35.418,25,31z M21,31c0,2.21-1.791,4-4,4s-4-1.79-4-4c0-2.209,1.791-4,4-4S21,28.791,21,31z"/>
    </g>
</svg>