<svg xmlns="http://www.w3.org/2000/svg" xmlns:xlink="http://www.w3.org/1999/xlink" x="0" y="0" version="1.1" viewBox="0 0 48 48" ><g fill="none" stroke="none" stroke-width="1" stroke-linecap="butt" stroke-linejoin="miter" stroke-miterlimit="10" stroke-dasharray="" stroke-dashoffset="0" font-family="sans-serif" font-weight="normal" font-size="12" text-anchor="start" mix-blend-mode="normal"><g><g><path d="M0,48l0,-48l48,0l0,48z" fill="none"/><g><path d="M43,40c0,0.553 -0.447,1 -1,1l-36,0c-0.553,0 -1,-0.447 -1,-1l0,-32c0,-0.553 0.447,-1 1,-1l36,0c0.553,0 1,0.447 1,1z" fill="#bbdefb"/><path d="M16,29l-7,0l0,7l7,0l0,-7z" fill="#64b5f6"/><g fill="#1976d2"><rect x="9" y="15" transform="scale(1,1)" width="8" height="2"/><rect x="9" y="22" transform="scale(1,1)" width="8" height="2"/><rect x="19" y="31" transform="scale(1,1)" width="20" height="2"/></g><g><path d="M39,17c0,0.552 -0.447,1 -1,1l-16,0c-0.552,0 -1,-0.448 -1,-1l0,-2c0,-0.552 0.448,-1 1,-1l16,0c0.553,0 1,0.448 1,1z" fill="#ffffff"/><path d="M39,24c0,0.552 -0.447,1 -1,1l-16,0c-0.552,0 -1,-0.448 -1,-1l0,-2c0,-0.552 0.448,-1 1,-1l16,0c0.553,0 1,0.448 1,1z" fill="#ffffff"/><rect x="11" y="31" transform="scale(1,1)" width="3" height="3" fill="#fafafa"/></g></g><g><g><path d="M46.06286,38.96286c0.1,-0.4 0.1,-0.8 0.1,-1.1c0,-0.3 0,-0.8 -0.1,-1.1l2.3,-1.7c0.2,-0.2 0.3,-0.5 0.2,-0.7l-2.3,-3.9c-0.1,-0.2 -0.4,-0.3 -0.7,-0.2l-2.6,1.2c-0.6,-0.5 -1.3,-0.9 -2,-1.2l-0.3,-2.9c0,-0.3 -0.3,-0.5 -0.5,-0.5l-4.6,0c-0.2,0 -0.5,0.2 -0.5,0.5l-0.3,2.9c-0.7,0.2 -1.4,0.6 -2,1.1l-2.6,-1.2c-0.3,-0.1 -0.6,0 -0.7,0.2l-2.3,4c-0.1,0.2 0,0.5 0.2,0.7l2.3,1.7c-0.1,0.4 -0.1,0.8 -0.1,1.1c0,0.3 0,0.8 0.1,1.1l-2.3,1.7c-0.2,0.2 -0.3,0.5 -0.2,0.7l2.3,3.9c0.1,0.2 0.4,0.3 0.7,0.2l2.6,-1.2c0.6,0.5 1.3,0.9 2,1.2l0.3,2.9c0,0.3 0.3,0.5 0.5,0.5l4.5,0c0.3,0 0.5,-0.2 0.5,-0.5l0.3,-2.9c0.7,-0.3 1.4,-0.7 2,-1.2l2.6,1.2c0.3,0.1 0.6,0 0.7,-0.2l2.3,-3.9c0.1,-0.2 0.1,-0.6 -0.2,-0.7l-2.2,-1.7z M37.86286,43.06286c-2.9,0 -5.2,-2.3 -5.2,-5.2c0,-2.9 2.3,-5.2 5.2,-5.2c2.9,0 5.2,2.3 5.2,5.2c0,2.9 -2.3,5.2 -5.2,5.2" fill="#607d8b"/><path d="M37.86286,31.86286c-3.3,0 -6,2.7 -6,6c0,3.3 2.7,6 6,6c3.3,0 6,-2.7 6,-6c0,-3.3 -2.7,-6 -6,-6 M37.86286,40.86286c-1.7,0 -3,-1.3 -3,-3c0,-1.7 1.3,-3 3,-3c1.7,0 3,1.3 3,3c0,1.7 -1.3,3 -3,3" fill="#455a64"/></g><path d="M27.02857,37.86286c0,-5.98361 4.85067,-10.83429 10.83429,-10.83429c5.98361,0 10.83429,4.85067 10.83429,10.83429c0,5.98361 -4.85067,10.83429 -10.83429,10.83429c-5.98361,0 -10.83429,-4.85067 -10.83429,-10.83429z" fill="#ff0000" opacity="0"/></g></g></g></g></svg>