<svg clip-rule="evenodd" fill-rule="evenodd" stroke-linejoin="round" stroke-miterlimit="2" viewBox="0 0 500 500" xmlns="http://www.w3.org/2000/svg">
    <path d="m426.777 73.223c-46.884-46.884-110.473-73.223-176.777-73.223-137.979 0-250 112.021-250 250s112.021 250 250 250c66.304 0 129.893-26.339 176.777-73.223l-53.033-53.033c-32.819 32.819-77.331 51.256-123.744 51.256-96.585 0-175-78.415-175-175s78.415-175 175-175c46.413 0 90.925 18.437 123.744 51.256z" fill="#ffab00"/>
    <path d="m73.223 426.777c46.884 46.884 110.473 73.223 176.777 73.223s129.893-26.339 176.777-73.223l-53.033-53.033c-32.819 32.819-77.331 51.256-123.744 51.256s-90.925-18.437-123.744-51.256z" fill="#ffc400"/>
    <circle cx="175" cy="250" fill="#ffab00" r="37.5"/>
    <circle cx="325" cy="250" fill="#ffab00" r="37.5"/>
</svg>
