<?xml version="1.0" encoding="UTF-8"?>
<svg xmlns="http://www.w3.org/2000/svg" xmlns:xlink="http://www.w3.org/1999/xlink" viewBox="0 0 48 48"
     version="1.1">
    <g>
        <path style=" stroke:none;fill-rule:nonzero;fill:rgb(29.803922%,68.627451%,31.372549%);fill-opacity:1;" d="M 44 24 C 44 35.046875 35.046875 44 24 44 C 12.953125 44 4 35.046875 4 24 C 4 12.953125 12.953125 4 24 4 C 35.046875 4 44 12.953125 44 24 Z M 44 24 "/>
        <path style=" stroke:none;fill-rule:nonzero;fill:rgb(80%,100%,56.470588%);fill-opacity:1;" d="M 34.601562 14.601562 L 21 28.199219 L 15.398438 22.601562 L 12.601562 25.398438 L 21 33.800781 L 37.398438 17.398438 Z M 34.601562 14.601562 "/>
        <path style=" stroke:none;fill-rule:nonzero;fill:rgb(37.647059%,49.019608%,54.509804%);fill-opacity:1;" d="M 45.460938 38.101562 C 45.5625 37.699219 45.5625 37.300781 45.5625 37 C 45.5625 36.699219 45.5625 36.199219 45.460938 35.898438 L 47.761719 34.199219 C 47.960938 34 48.0625 33.699219 47.960938 33.5 L 45.660156 29.601562 C 45.5625 29.398438 45.261719 29.300781 44.960938 29.398438 L 42.359375 30.601562 C 41.761719 30.101562 41.0625 29.699219 40.359375 29.398438 L 40.0625 26.5 C 40.0625 26.199219 39.761719 26 39.5625 26 L 34.960938 26 C 34.761719 26 34.460938 26.199219 34.460938 26.5 L 34.160156 29.398438 C 33.460938 29.601562 32.761719 30 32.160156 30.5 L 29.5625 29.300781 C 29.261719 29.199219 28.960938 29.300781 28.859375 29.5 L 26.5625 33.5 C 26.460938 33.699219 26.5625 34 26.761719 34.199219 L 29.0625 35.898438 C 28.960938 36.300781 28.960938 36.699219 28.960938 37 C 28.960938 37.300781 28.960938 37.800781 29.0625 38.101562 L 26.761719 39.800781 C 26.5625 40 26.460938 40.300781 26.5625 40.5 L 28.859375 44.398438 C 28.960938 44.601562 29.261719 44.699219 29.5625 44.601562 L 32.160156 43.398438 C 32.761719 43.898438 33.460938 44.300781 34.160156 44.601562 L 34.460938 47.5 C 34.460938 47.800781 34.761719 48 34.960938 48 L 39.460938 48 C 39.761719 48 39.960938 47.800781 39.960938 47.5 L 40.261719 44.601562 C 40.960938 44.300781 41.660156 43.898438 42.261719 43.398438 L 44.859375 44.601562 C 45.160156 44.699219 45.460938 44.601562 45.5625 44.398438 L 47.859375 40.5 C 47.960938 40.300781 47.960938 39.898438 47.660156 39.800781 Z M 37.261719 42.199219 C 34.359375 42.199219 32.0625 39.898438 32.0625 37 C 32.0625 34.101562 34.359375 31.800781 37.261719 31.800781 C 40.160156 31.800781 42.460938 34.101562 42.460938 37 C 42.460938 39.898438 40.160156 42.199219 37.261719 42.199219 "/>
        <path style=" stroke:none;fill-rule:nonzero;fill:rgb(27.058824%,35.294118%,39.215686%);fill-opacity:1;" d="M 37.261719 31 C 33.960938 31 31.261719 33.699219 31.261719 37 C 31.261719 40.300781 33.960938 43 37.261719 43 C 40.5625 43 43.261719 40.300781 43.261719 37 C 43.261719 33.699219 40.5625 31 37.261719 31 M 37.261719 40 C 35.5625 40 34.261719 38.699219 34.261719 37 C 34.261719 35.300781 35.5625 34 37.261719 34 C 38.960938 34 40.261719 35.300781 40.261719 37 C 40.261719 38.699219 38.960938 40 37.261719 40 "/>
    </g>
</svg>
