<?xml version="1.0" encoding="UTF-8"?>
<svg xmlns="http://www.w3.org/2000/svg" xmlns:xlink="http://www.w3.org/1999/xlink" viewBox="0 0 48 48" version="1.1">
    <g>
        <path style=" stroke:none;fill-rule:nonzero;fill:rgb(73.333333%,87.058824%,98.431373%);fill-opacity:1;" d="M 24 42 L 6 35 L 6 13 L 24 20 Z M 24 42 "/>
        <path style=" stroke:none;fill-rule:nonzero;fill:rgb(12.941176%,58.823529%,95.294118%);fill-opacity:1;" d="M 24 42 L 42 35 L 42 13 L 24 20 Z M 24 42 "/>
        <path style=" stroke:none;fill-rule:nonzero;fill:rgb(56.470588%,79.215686%,97.647059%);fill-opacity:1;" d="M 6 13 L 24 6 L 42 13 L 24 20 Z M 6 13 "/>
        <path style=" stroke:none;fill-rule:nonzero;fill:rgb(100%,100%,100%);fill-opacity:1;" d="M 10 31 C 9.449219 31 9 31.449219 9 32 C 9 32.550781 9.449219 33 10 33 C 10.550781 33 11 32.550781 11 32 C 11 31.449219 10.550781 31 10 31 Z M 10 21 C 9.449219 21 9 21.449219 9 22 C 9 22.550781 9.449219 23 10 23 C 10.550781 23 11 22.550781 11 22 C 11 21.449219 10.550781 21 10 21 Z M 13 28 C 12.449219 28 12 28.449219 12 29 C 12 29.550781 12.449219 30 13 30 C 13.550781 30 14 29.550781 14 29 C 14 28.449219 13.550781 28 13 28 Z M 13 28 "/>
        <path style=" stroke:none;fill-rule:nonzero;fill:rgb(98.431373%,54.901961%,0%);fill-opacity:1;" d="M 30.570312 30.976562 L 18.171875 30.976562 C 17.171875 30.976562 16.371094 30.175781 16.371094 29.175781 L 16.371094 20.777344 C 16.371094 19.777344 17.171875 18.976562 18.171875 18.976562 L 30.570312 18.976562 C 31.570312 18.976562 32.371094 19.777344 32.371094 20.777344 L 32.371094 29.175781 C 32.371094 30.175781 31.570312 30.976562 30.570312 30.976562 "/>
        <path style=" stroke:none;fill-rule:nonzero;fill:rgb(78.039216%,43.137255%,0%);fill-opacity:1;" d="M 26.371094 24.976562 C 26.371094 26.078125 25.472656 26.976562 24.371094 26.976562 C 23.273438 26.976562 22.371094 26.078125 22.371094 24.976562 C 22.371094 23.875 23.273438 22.976562 24.371094 22.976562 C 25.472656 22.976562 26.371094 23.875 26.371094 24.976562 "/>
        <path style=" stroke:none;fill-rule:nonzero;fill:rgb(21.568627%,27.843137%,30.980392%);fill-opacity:1;" d="M 29.371094 18.976562 L 27.371094 18.976562 L 27.371094 15.976562 C 27.371094 15.476562 27.171875 12.976562 24.371094 12.976562 C 21.570312 12.976562 21.371094 15.476562 21.371094 15.976562 L 21.371094 18.976562 L 19.371094 18.976562 L 19.371094 15.976562 C 19.371094 14.277344 20.371094 10.976562 24.371094 10.976562 C 28.371094 10.976562 29.371094 14.277344 29.371094 15.976562 Z M 29.371094 18.976562 "/>
    </g>
</svg>
