<?xml version="1.0"?>
<svg xmlns="http://www.w3.org/2000/svg" xmlns:xlink="http://www.w3.org/1999/xlink" version="1.1" viewBox="0 0 252 252"><g fill="none" fill-rule="nonzero" stroke="none" stroke-width="1" stroke-linecap="butt" stroke-linejoin="miter" stroke-miterlimit="10" stroke-dasharray="" stroke-dashoffset="0" font-family="none" font-weight="none" font-size="none" text-anchor="none" style="mix-blend-mode: normal"><path d="M0,252v-252h252v252z" fill="none"/><g><g id="surface1"><path d="M236.25,158.73047v14.06836l-110.25,37.20117l-110.25,-37.05762v-14.99121z" fill="#90caf9"/><path d="M26.25,165.375c0,4.34766 -3.52734,7.875 -7.875,7.875c-4.34766,0 -7.875,-3.52734 -7.875,-7.875c0,-4.34766 3.52734,-7.875 7.875,-7.875c4.34766,0 7.875,3.52734 7.875,7.875z" fill="#90caf9"/><path d="M241.5,165.375c0,4.34766 -3.52734,7.875 -7.875,7.875c-4.34766,0 -7.875,-3.52734 -7.875,-7.875c0,-4.34766 3.52734,-7.875 7.875,-7.875c4.34766,0 7.875,3.52734 7.875,7.875z" fill="#90caf9"/><path d="M236.25,126.45117v14.84766l-110.25,37.20117l-110.25,-37.20117v-14.84766z" fill="#90caf9"/><path d="M26.25,133.875c0,4.34766 -3.52734,7.875 -7.875,7.875c-4.34766,0 -7.875,-3.52734 -7.875,-7.875c0,-4.34766 3.52734,-7.875 7.875,-7.875c4.34766,0 7.875,3.52734 7.875,7.875z" fill="#90caf9"/><path d="M241.5,133.875c0,4.34766 -3.52734,7.875 -7.875,7.875c-4.34766,0 -7.875,-3.52734 -7.875,-7.875c0,-4.34766 3.52734,-7.875 7.875,-7.875c4.34766,0 7.875,3.52734 7.875,7.875z" fill="#90caf9"/><path d="M236.25,94.95117v14.84766l-110.25,37.20117l-110.25,-37.20117v-14.84766z" fill="#90caf9"/><path d="M26.25,102.375c0,4.34766 -3.52734,7.875 -7.875,7.875c-4.34766,0 -7.875,-3.52734 -7.875,-7.875c0,-4.34766 3.52734,-7.875 7.875,-7.875c4.34766,0 7.875,3.52734 7.875,7.875z" fill="#90caf9"/><path d="M241.5,102.375c0,4.34766 -3.52734,7.875 -7.875,7.875c-4.34766,0 -7.875,-3.52734 -7.875,-7.875c0,-4.34766 3.52734,-7.875 7.875,-7.875c4.34766,0 7.875,3.52734 7.875,7.875z" fill="#90caf9"/><path d="M241.5,118.125c0,-7.13672 -6.48047,-7.73144 -6.89062,-7.77246l-108.60937,36.64746l-108.60937,-36.64746c-3.87598,0.49219 -6.89062,3.75293 -6.89062,7.77246c0,3.42481 2.21484,6.31641 5.27051,7.40332v0.02051l110.22949,37.20117l110.25,-37.20117v-0.04102c3.05566,-1.08691 5.25,-3.95801 5.25,-7.38281z" fill="#42a5f5"/><path d="M241.5,86.625c0,4.34766 -3.52734,7.875 -7.875,7.875c-4.34766,0 -7.875,-3.52734 -7.875,-7.875c0,-4.34766 3.52734,-7.875 7.875,-7.875c4.34766,0 7.875,3.52734 7.875,7.875z" fill="#42a5f5"/><path d="M236.25,79.20117v14.84766l-110.25,37.20117l-110.25,-37.20117v-14.84766" fill="#42a5f5"/><path d="M26.25,86.625c0,4.34766 -3.52734,7.875 -7.875,7.875c-4.34766,0 -7.875,-3.52734 -7.875,-7.875c0,-4.34766 3.52734,-7.875 7.875,-7.875c4.34766,0 7.875,3.52734 7.875,7.875z" fill="#42a5f5"/><path d="M236.25,79.20117l-110.25,36.29883l-110.25,-36.29883l110.25,-37.20117z" fill="#42a5f5"/><path d="M241.5,149.625c0,-6.76758 -6.48047,-7.73144 -6.89062,-7.77246l-108.60937,36.64746l-102.04687,-34.45312l-6.5625,-2.19434c-3.87598,0.47168 -6.89062,3.75293 -6.89062,7.77246c0,3.42481 2.19434,6.2959 5.25,7.38281v0.04102l110.25,37.20117l110.25,-37.20117v-0.04102c3.05566,-1.08691 5.25,-3.95801 5.25,-7.38281z" fill="#42a5f5"/></g></g><g><g id="IOS_copy"><path d="M252,199.5c0,28.875 -23.625,52.5 -52.5,52.5c-28.875,0 -52.5,-23.625 -52.5,-52.5c0,-28.875 23.625,-52.5 52.5,-52.5c28.875,0 52.5,23.625 52.5,52.5" fill="#43a047"/><path d="M231,189h-21v-21h-21v21h-21v21h21v21h21v-21h21z" fill="#ffffff"/></g></g></g></svg>
