<?xml version="1.0" encoding="UTF-8"?>
<svg xmlns="http://www.w3.org/2000/svg" xmlns:xlink="http://www.w3.org/1999/xlink" viewBox="0 0 48 48" version="1.1">
<g id="surface1">
<path style=" fill:#90CAF9;" d="M 45 30.234375 L 45 32.914063 L 24 40 L 3 32.941406 L 3 30.085938 Z "/>
<path style=" fill:#90CAF9;" d="M 5 31.5 C 5 32.328125 4.328125 33 3.5 33 C 2.671875 33 2 32.328125 2 31.5 C 2 30.671875 2.671875 30 3.5 30 C 4.328125 30 5 30.671875 5 31.5 Z "/>
<path style=" fill:#90CAF9;" d="M 46 31.5 C 46 32.328125 45.328125 33 44.5 33 C 43.671875 33 43 32.328125 43 31.5 C 43 30.671875 43.671875 30 44.5 30 C 45.328125 30 46 30.671875 46 31.5 Z "/>
<path style=" fill:#90CAF9;" d="M 45 24.085938 L 45 26.914063 L 24 34 L 3 26.914063 L 3 24.085938 Z "/>
<path style=" fill:#90CAF9;" d="M 5 25.5 C 5 26.328125 4.328125 27 3.5 27 C 2.671875 27 2 26.328125 2 25.5 C 2 24.671875 2.671875 24 3.5 24 C 4.328125 24 5 24.671875 5 25.5 Z "/>
<path style=" fill:#90CAF9;" d="M 46 25.5 C 46 26.328125 45.328125 27 44.5 27 C 43.671875 27 43 26.328125 43 25.5 C 43 24.671875 43.671875 24 44.5 24 C 45.328125 24 46 24.671875 46 25.5 Z "/>
<path style=" fill:#90CAF9;" d="M 45 18.085938 L 45 20.914063 L 24 28 L 3 20.914063 L 3 18.085938 Z "/>
<path style=" fill:#90CAF9;" d="M 5 19.5 C 5 20.328125 4.328125 21 3.5 21 C 2.671875 21 2 20.328125 2 19.5 C 2 18.671875 2.671875 18 3.5 18 C 4.328125 18 5 18.671875 5 19.5 Z "/>
<path style=" fill:#90CAF9;" d="M 46 19.5 C 46 20.328125 45.328125 21 44.5 21 C 43.671875 21 43 20.328125 43 19.5 C 43 18.671875 43.671875 18 44.5 18 C 45.328125 18 46 18.671875 46 19.5 Z "/>
<path style=" fill:#42A5F5;" d="M 46 22.5 C 46 21.140625 44.765625 21.027344 44.6875 21.019531 L 24 28 L 3.3125 21.019531 C 2.574219 21.113281 2 21.734375 2 22.5 C 2 23.152344 2.421875 23.703125 3.003906 23.910156 L 3.003906 23.914063 L 24 31 L 45 23.914063 L 45 23.90625 C 45.582031 23.699219 46 23.152344 46 22.5 Z "/>
<path style=" fill:#42A5F5;" d="M 46 16.5 C 46 17.328125 45.328125 18 44.5 18 C 43.671875 18 43 17.328125 43 16.5 C 43 15.671875 43.671875 15 44.5 15 C 45.328125 15 46 15.671875 46 16.5 Z "/>
<path style=" fill:#42A5F5;" d="M 45 15.085938 L 45 17.914063 L 24 25 L 3 17.914063 L 3 15.085938 "/>
<path style=" fill:#42A5F5;" d="M 5 16.5 C 5 17.328125 4.328125 18 3.5 18 C 2.671875 18 2 17.328125 2 16.5 C 2 15.671875 2.671875 15 3.5 15 C 4.328125 15 5 15.671875 5 16.5 Z "/>
<path style=" fill:#42A5F5;" d="M 45 15.085938 L 24 22 L 3 15.085938 L 24 8 Z "/>
<path style=" fill:#42A5F5;" d="M 46 28.5 C 46 27.210938 44.765625 27.027344 44.6875 27.019531 L 24 34 L 4.5625 27.4375 L 3.3125 27.019531 C 2.574219 27.109375 2 27.734375 2 28.5 C 2 29.152344 2.417969 29.699219 3 29.90625 L 3 29.914063 L 24 37 L 45 29.914063 L 45 29.90625 C 45.582031 29.699219 46 29.152344 46 28.5 Z "/>
</g>
</svg>
