<?xml version="1.0" encoding="iso-8859-1"?><svg xmlns="http://www.w3.org/2000/svg" xmlns:xlink="http://www.w3.org/1999/xlink" version="1.1" id="Layer_1" x="0px" y="0px" viewBox="0 0 40 40" style="enable-background:new 0 0 40 40;" xml:space="preserve">
<g>
	<rect x="6.5" y="1.5" style="fill:#C2E8FF;" width="27" height="37"/>
	<g>
		<path style="fill:#7496C4;" d="M33,2v36H7V2H33 M34,1H6v38h28V1L34,1z"/>
	</g>
</g>
<rect x="6" y="14" style="fill:#C2E8FF;" width="4" height="12"/>
<g>
	<polygon style="fill:#8BB7F0;" points="16.5,22.5 0.5,22.5 0.5,17.5 16.5,17.5 16.5,10.241 26.292,20 16.5,29.759  "/>
	<g>
		<path style="fill:#4E7AB5;" d="M17,11.445L25.583,20L17,28.554V23v-1h-1H1v-4h15h1v-1V11.445 M16,9.037V17H0v6h16v7.963L27,20    L16,9.037L16,9.037z"/>
	</g>
</g>
</svg>