<?xml version="1.0" encoding="iso-8859-1"?>
<!-- Generator: Adobe Illustrator 21.0.2, SVG Export Plug-In . SVG Version: 6.00 Build 0)  -->
<svg xmlns="http://www.w3.org/2000/svg" xmlns:xlink="http://www.w3.org/1999/xlink" version="1.1" id="Layer_1" x="0px" y="0px" viewBox="0 0 48 48" style="enable-background:new 0 0 48 48;" xml:space="preserve">
<path style="fill:#00ACC1;" d="M44,24c0,11.044-8.956,20-20,20S4,35.044,4,24S12.956,4,24,4S44,12.956,44,24z"/>
<path style="fill:#EEEEEE;" d="M40,24c0,8.838-7.162,16-16,16S8,32.838,8,24S15.163,8,24,8S40,15.163,40,24z"/>
<rect x="23" y="11" width="2" height="13"/>
<rect x="26.082" y="22.654" transform="matrix(0.7071 -0.7071 0.7071 0.7071 -11.2871 27.2499)" width="2.337" height="9.192"/>
<path d="M27,24c0,1.657-1.344,3-3,3c-1.657,0-3-1.343-3-3s1.343-3,3-3C25.656,21,27,22.343,27,24"/>
<path style="fill:#00ACC1;" d="M25,24c0,0.551-0.448,1-1,1s-1-0.449-1-1c0-0.553,0.448-1,1-1S25,23.447,25,24"/>
</svg>
