<?xml version="1.0" encoding="UTF-8"?>
<svg xmlns="http://www.w3.org/2000/svg" xmlns:xlink="http://www.w3.org/1999/xlink" viewBox="0 0 48 48" version="1.1">
<g id="surface1">
<path style=" fill:#90CAF9;" d="M 4 15 L 4 33 L 44 33 L 44 15 Z "/>
<path style=" fill:#3F51B5;" d="M 23 42 L 23 38 C 25.972656 38 26.933594 37.375 28.105469 36.1875 C 28.925781 35.367188 29 34.945313 29 34.9375 L 29 13.539063 C 28.976563 13.257813 29.769531 10 23 10 L 23 6 C 33.9375 6 32.996094 13.421875 33 13.496094 L 33 34.925781 C 33.003906 35.164063 32.960938 36.980469 30.945313 39.007813 C 28.976563 40.992188 27.117188 42 23 42 Z "/>
<path style=" fill:#3F51B5;" d="M 39 42 L 39 38 C 36.027344 38 35.066406 37.375 33.894531 36.1875 C 33.074219 35.367188 33 34.945313 33 34.9375 L 33 13.539063 C 33.023438 13.257813 32.230469 10 39 10 L 39 6 C 28.0625 6 29.003906 13.421875 29 13.496094 L 29 34.925781 C 28.996094 35.164063 29.039063 36.980469 31.054688 39.007813 C 33.023438 40.992188 34.882813 42 39 42 Z "/>
</g>
</svg>
