<?xml version="1.0" encoding="UTF-8"?>
<svg xmlns="http://www.w3.org/2000/svg" xmlns:xlink="http://www.w3.org/1999/xlink" viewBox="0 0 48 48" version="1.1">
<g id="surface1">
<path style=" fill:#FFFFFF;" d="M 5.929688 25.039063 C 5.929688 25.039063 13.988281 14 23.933594 14 C 33.878906 14 41.929688 25.039063 41.929688 25.039063 C 41.929688 25.039063 33.878906 36 23.933594 36 C 13.988281 36 5.929688 25.039063 5.929688 25.039063 Z "/>
<path style=" fill:#CFD8DC;" d="M 23.933594 14 C 33.878906 14 41.929688 25.039063 41.929688 25.039063 C 41.929688 25.039063 33.878906 36 23.933594 36 C 13.988281 36 5.929688 25.039063 5.929688 25.039063 C 5.929688 25.039063 13.988281 14 23.933594 14 M 23.933594 12 C 13.097656 12 4.667969 23.378906 4.3125 23.863281 L 3.449219 25.046875 L 4.316406 26.226563 C 4.671875 26.707031 13.101563 38 23.933594 38 C 34.765625 38 43.1875 26.707031 43.539063 26.226563 L 44.40625 25.046875 L 43.546875 23.863281 C 43.191406 23.378906 34.769531 12 23.933594 12 Z "/>
<path style=" fill:#00ACC1;" d="M 14.933594 24.992188 C 14.933594 20.023438 18.96875 16 23.933594 16 C 28.902344 16 32.933594 20.023438 32.933594 24.992188 C 32.933594 29.972656 28.902344 34 23.933594 34 C 18.96875 34 14.933594 29.972656 14.933594 24.992188 Z "/>
<path style=" fill:#006064;" d="M 19.933594 25 C 19.933594 22.785156 21.722656 21 23.933594 21 C 26.140625 21 27.933594 22.785156 27.933594 25 C 27.933594 27.21875 26.140625 29 23.933594 29 C 21.722656 29 19.933594 27.21875 19.933594 25 Z "/>
<path style=" fill:#90A4AE;" d="M 5.960938 25 C 6.484375 24.300781 14.328125 14.039063 23.933594 14.039063 C 33.539063 14.039063 41.375 24.300781 41.898438 25 L 46.855469 25 L 45.15625 22.679688 C 44.777344 22.160156 35.769531 10.039063 23.933594 10.039063 C 12.097656 10.039063 3.082031 22.160156 2.703125 22.675781 L 1 25 Z "/>
</g>
</svg>
