<?xml version="1.0" encoding="UTF-8"?>
<svg xmlns="http://www.w3.org/2000/svg" xmlns:xlink="http://www.w3.org/1999/xlink" viewBox="0 0 48 48" version="1.1">
<g id="surface1">
<path style=" fill:#CFD8DC;" d="M 12 40 L 12 20 L 44 20 L 44 40 C 44 42.199219 42.199219 44 40 44 L 16 44 C 13.800781 44 12 42.199219 12 40 Z "/>
<path style=" fill:#78909C;" d="M 44 16 L 44 22 L 12 22 L 12 16 C 12 13.800781 13.800781 12 16 12 L 40 12 C 42.199219 12 44 13.800781 44 16 Z "/>
<path style=" fill:#37474F;" d="M 40 16 C 40 17.65625 38.65625 19 37 19 C 35.34375 19 34 17.65625 34 16 C 34 14.34375 35.34375 13 37 13 C 38.65625 13 40 14.34375 40 16 Z "/>
<path style=" fill:#37474F;" d="M 23 16 C 23 17.65625 21.65625 19 20 19 C 18.34375 19 17 17.65625 17 16 C 17 14.34375 18.34375 13 20 13 C 21.65625 13 23 14.34375 23 16 Z "/>
<path style=" fill:#B0BEC5;" d="M 37 10 C 35.898438 10 35 10.898438 35 12 L 35 16 C 35 17.101563 35.898438 18 37 18 C 38.101563 18 39 17.101563 39 16 L 39 12 C 39 10.898438 38.101563 10 37 10 Z "/>
<path style=" fill:#B0BEC5;" d="M 20 10 C 18.898438 10 18 10.898438 18 12 L 18 16 C 18 17.101563 18.898438 18 20 18 C 21.101563 18 22 17.101563 22 16 L 22 12 C 22 10.898438 21.101563 10 20 10 Z "/>
<path style=" fill:#90A4AE;" d="M 32 34 L 36 34 L 36 38 L 32 38 Z "/>
<path style=" fill:#90A4AE;" d="M 26 34 L 30 34 L 30 38 L 26 38 Z "/>
<path style=" fill:#90A4AE;" d="M 20 34 L 24 34 L 24 38 L 20 38 Z "/>
<path style=" fill:#90A4AE;" d="M 32 28 L 36 28 L 36 32 L 32 32 Z "/>
<path style=" fill:#90A4AE;" d="M 26 28 L 30 28 L 30 32 L 26 32 Z "/>
<path style=" fill:#90A4AE;" d="M 20 28 L 24 28 L 24 32 L 20 32 Z "/>
<path style=" fill:#F44336;" d="M 28 15 C 28 21.628906 22.628906 27 16 27 C 9.371094 27 4 21.628906 4 15 C 4 8.371094 9.371094 3 16 3 C 22.628906 3 28 8.371094 28 15 Z "/>
<path style=" fill:#EEEEEE;" d="M 25 15 C 25 19.96875 20.96875 24 16 24 C 11.03125 24 7 19.96875 7 15 C 7 10.03125 11.03125 6 16 6 C 20.96875 6 25 10.03125 25 15 Z "/>
<path style=" " d="M 15 8 L 17 8 L 17 15 L 15 15 Z "/>
<path style=" " d="M 20.515625 18.101563 L 19.171875 19.445313 L 15.351563 15.625 L 16.695313 14.28125 Z "/>
<path style=" " d="M 17.5 15 C 17.5 15.828125 16.828125 16.5 16 16.5 C 15.171875 16.5 14.5 15.828125 14.5 15 C 14.5 14.171875 15.171875 13.5 16 13.5 C 16.828125 13.5 17.5 14.171875 17.5 15 Z "/>
</g>
</svg>
