<?xml version="1.0"?>
<svg xmlns="http://www.w3.org/2000/svg" xmlns:xlink="http://www.w3.org/1999/xlink" version="1.1" viewBox="0 0 192 192"><g fill="none" fill-rule="nonzero" stroke="none" stroke-width="1" stroke-linecap="butt" stroke-linejoin="miter" stroke-miterlimit="10" stroke-dasharray="" stroke-dashoffset="0" font-family="none" font-weight="none" font-size="none" text-anchor="none" style="mix-blend-mode: normal"><path d="M0,192v-192h192v192z" fill="none"/><g><g id="surface1"><path d="M160,176h-128c-8.84375,0 -16,-7.15625 -16,-16v-83.67188c0,-5.21875 2.54688,-10.10937 6.82812,-13.09375l73.17188,-51.23438l73.17188,51.23438c4.28125,2.98438 6.82812,7.875 6.82812,13.09375v83.67188c0,8.84375 -7.15625,16 -16,16" fill="#78909c"/><path d="M48,56h96v88h-96z" fill="#ffffff"/><path d="M160,176h-128c-8.84375,0 -16,-7.15625 -16,-16v-80l80,52l80,-52v80c0,8.84375 -7.15625,16 -16,16" fill="#cfd8dc"/><path d="M60,76h72v8h-72z" fill="#2196f3"/><path d="M60,92h48v8h-48z" fill="#2196f3"/></g></g></g></svg>
