<?xml version="1.0" encoding="UTF-8"?>
<svg xmlns="http://www.w3.org/2000/svg" xmlns:xlink="http://www.w3.org/1999/xlink" viewBox="0 0 48 48"
     version="1.1">
    <g>
        <path style=" stroke:none;fill-rule:nonzero;fill:rgb(73.333333%,87.058824%,98.431373%);fill-opacity:1;"
              d="M 15 42 L 6 37 L 6 26 L 15 31 Z M 33 42 L 24 37 L 24 26 L 33 31 Z M 24 26 L 15 21 L 15 10 L 24 15 Z M 24 26 "/>
        <path style=" stroke:none;fill-rule:nonzero;fill:rgb(12.941176%,58.823529%,95.294118%);fill-opacity:1;"
              d="M 15 42 L 24 37 L 24 26 L 15 31 Z M 33 42 L 42 37 L 42 26 L 33 31 Z M 24 26 L 33 21 L 33 10 L 24 15 Z M 24 26 "/>
        <path style=" stroke:none;fill-rule:nonzero;fill:rgb(56.470588%,79.215686%,97.647059%);fill-opacity:1;"
              d="M 6 26 L 15 21 L 24 26 L 15 31 Z M 24 26 L 33 21 L 42 26 L 33 31 Z M 15 10 L 24 5 L 33 10 L 24 15 Z M 15 10 "/>
        <path style=" stroke:none;fill-rule:nonzero;fill:rgb(26.27451%,62.745098%,27.843137%);fill-opacity:1;"
              d="M 48 38 C 48 43.5 43.5 48 38 48 C 32.5 48 28 43.5 28 38 C 28 32.5 32.5 28 38 28 C 43.5 28 48 32.5 48 38 "/>
        <path style=" stroke:none;fill-rule:nonzero;fill:rgb(100%,100%,100%);fill-opacity:1;"
              d="M 44 36 L 40 36 L 40 32 L 36 32 L 36 36 L 32 36 L 32 40 L 36 40 L 36 44 L 40 44 L 40 40 L 44 40 Z M 44 36 "/>
    </g>
</svg>
