<svg xmlns="http://www.w3.org/2000/svg" viewBox="0 0 48 48">
<g>
<path style=" stroke:none;fill-rule:nonzero;fill:rgb(12.941177%,58.823532%,95.294118%);fill-opacity:1;" d="M 7 8 L 41 8 C 43.210938 8 45 9.789062 45 12 L 45 36 C 45 38.210938 43.210938 40 41 40 L 7 40 C 4.789062 40 3 38.210938 3 36 L 3 12 C 3 9.789062 4.789062 8 7 8 "/>
<path style=" stroke:none;fill-rule:nonzero;fill:rgb(100%,100%,100%);fill-opacity:1;" d="M 17.039062 28.726562 L 12.746094 28.726562 L 11.910156 32 L 8.582031 32 L 13.449219 16 L 16.332031 16 L 21.234375 32 L 17.871094 32 Z M 13.429688 26.03125 L 16.34375 26.03125 L 14.886719 20.328125 Z M 26 26.375 L 26 32 L 23 32 L 23 16 L 28 16 C 29.542969 16 30.769531 16.492188 31.6875 17.472656 C 32.605469 18.453125 33 19.730469 33 21.296875 C 33 22.863281 32.609375 24.101562 31.703125 25.011719 C 30.796875 25.917969 29.542969 26.375 27.9375 26.375 Z M 26 23.679688 L 28.117188 23.679688 C 28.714844 23.679688 29.179688 23.480469 29.507812 23.078125 C 29.835938 22.675781 30 22.089844 30 21.320312 C 30 20.519531 29.832031 19.886719 29.496094 19.410156 C 29.160156 18.941406 28.710938 18.699219 28.148438 18.691406 L 26 18.691406 Z M 38 32 L 35 32 L 35 16 L 38 16 Z M 38 32 "/>
<path style=" stroke:none;fill-rule:nonzero;fill:rgb(89.803922%,45.09804%,45.09804%);fill-opacity:1;" d="M 47.699219 29.101562 L 44.898438 26.300781 C 44.5 25.898438 43.800781 25.898438 43.300781 26.300781 L 42 27.601562 L 46.398438 32 L 47.699219 30.699219 C 48.101562 30.300781 48.101562 29.601562 47.699219 29.101562 "/>
<path style=" stroke:none;fill-rule:nonzero;fill:rgb(100%,59.607846%,0%);fill-opacity:1;" d="M 27.472656 42.117188 L 39.773438 29.816406 L 44.160156 34.199219 L 31.855469 46.503906 Z M 27.472656 42.117188 "/>
<path style=" stroke:none;fill-rule:nonzero;fill:rgb(69.01961%,74.509805%,77.254903%);fill-opacity:1;" d="M 39.777344 29.816406 L 42 27.601562 L 46.398438 32 L 44.160156 34.199219 Z M 39.777344 29.816406 "/>
<path style=" stroke:none;fill-rule:nonzero;fill:rgb(100%,75.686276%,2.745098%);fill-opacity:1;" d="M 27.472656 42.117188 L 26.742188 45.039062 L 28.945312 47.246094 L 31.855469 46.503906 Z M 27.472656 42.117188 "/>
<path style=" stroke:none;fill-rule:nonzero;fill:rgb(21.568628%,27.843139%,30.980393%);fill-opacity:1;" d="M 26.742188 45.039062 L 26 48 L 28.945312 47.246094 Z M 26.742188 45.039062 "/>
</g>
</svg>
