<?xml version="1.0" encoding="iso-8859-1"?><!-- Generator: Adobe Illustrator 19.1.1, SVG Export Plug-In . SVG Version: 6.00 Build 0)  --><svg xmlns="http://www.w3.org/2000/svg" xmlns:xlink="http://www.w3.org/1999/xlink" version="1.1" id="Layer_1" x="0px" y="0px" viewBox="0 0 48 48" enable-background="new 0 0 48 48" xml:space="preserve" >
<g>
	<path fill="#CFD8DC" d="M43,31c0,1.106-0.896,2-2,2H5c-1.105,0-2-0.894-2-2V15c0-1.105,0.895-2,2-2h36c1.104,0,2,0.895,2,2V31z"/>
</g>
<rect x="5" y="15" fill="#ECEFF1" width="36" height="16"/>
<path fill="#37474F" d="M26,23c0,1.656-1.343,3-3,3s-3-1.344-3-3c0-1.656,1.343-3,3-3S26,21.344,26,23z M13,20c-1.657,0-3,1.344-3,3  c0,1.656,1.343,3,3,3s3-1.344,3-3C16,21.344,14.657,20,13,20z M33,20c-1.657,0-3,1.344-3,3c0,1.656,1.343,3,3,3s3-1.344,3-3  C36,21.344,34.657,20,33,20z"/>
<path fill="#43A047" d="M45,35c0,5.523-4.478,10-10,10c-5.523,0-10-4.477-10-10s4.477-10,10-10C40.522,25,45,29.477,45,35"/>
<polygon fill="#DCEDC8" points="39.492,30.35 33.802,36.051 31.074,33.33 28.951,35.457 33.806,40.301 41.619,32.473 "/>
</svg>