<svg viewBox="0 0 500 500" xmlns="http://www.w3.org/2000/svg">
  <g style="fill:none;fill-rule:evenodd" transform="matrix(1.2142439,0,0,1.2198422,10.041572,9.9043781)">
    <path style="fill:#1a35ac" d="m 395.36,196.82 c -0.008,-2.835 -0.075,-5.655 -0.202,-8.461 l 0,-159.99 -44.23,44.23 c -36.2,-44.31 -91.27,-72.61 -152.95,-72.61 -64.19,0 -121.22,30.64 -157.27,78.09 l 72.5,73.26 c 7.105,-13.14 17.198,-24.426 29.368,-32.95 12.657,-9.877 30.591,-17.953 55.4,-17.953 2.997,0 5.31,0.35 7.01,1.01 30.737,2.426 57.38,19.389 73.07,44.01 l -51.32,51.32 c 65,-0.255 138.43,-0.405 168.62,0.034" />
    <path style="fill:#3f86f4" d="m 196.82,0 c -2.835,0.008 -5.655,0.075 -8.461,0.202 l -159.99,0 44.23,44.23 c -44.31,36.2 -72.61,91.27 -72.61,152.95 0,64.19 30.64,121.22 78.09,157.27 l 73.26,-72.5 c -13.14,-7.105 -24.426,-17.198 -32.95,-29.368 -9.877,-12.657 -17.953,-30.591 -17.953,-55.4 0,-2.997 0.35,-5.31 1.01,-7.01 2.426,-30.737 19.389,-57.38 44.01,-73.07 l 51.32,51.32 c -0.255,-65 -0.405,-138.43 0.034,-168.62" />
    <path style="fill:#b3b3b3" d="m 0,197.38 c 0.008,2.835 0.075,5.655 0.202,8.461 l 0,159.99 44.23,-44.23 c 36.2,44.31 91.27,72.61 152.95,72.61 64.19,0 121.22,-30.64 157.27,-78.09 l -72.5,-73.26 c -7.105,13.14 -17.198,24.426 -29.368,32.95 -12.657,9.877 -30.591,17.953 -55.4,17.953 -2.997,0 -5.31,-0.35 -7.01,-1.01 -30.737,-2.426 -57.38,-19.389 -73.07,-44.01 l 51.32,-51.32 c -65,0.255 -138.43,0.405 -168.62,-0.034" />
  </g>
</svg>
