<svg xmlns="http://www.w3.org/2000/svg" xmlns:xlink="http://www.w3.org/1999/xlink" x="0" y="0" version="1.1" viewBox="0 0 48 48" ><g fill="none" stroke="none" stroke-width="1" stroke-linecap="butt" stroke-linejoin="miter" stroke-miterlimit="10" stroke-dasharray="" stroke-dashoffset="0" font-family="sans-serif" font-weight="normal" font-size="12" text-anchor="start" mix-blend-mode="normal"><g><g><path d="M0,48l0,-48l48,0l0,48z" fill="none"/><g><path d="M43,30l0,-12c0,-2.206 -1.794,-4 -4,-4l-30,0c-2.206,0 -4,1.794 -4,4l0,12c0,2.206 1.794,4 4,4l30,0c2.206,0 4,-1.794 4,-4z M9,18l30,0l0,12l-30,0.002z" fill="#90caf9"/><path d="M43.678,3.142l-2.82,-2.82c-0.43,-0.43 -1.126,-0.43 -1.555,0l-1.327,1.327l4.375,4.376l1.327,-1.327c0.429,-0.43 0.429,-1.127 0,-1.556z" fill="#e57373"/><rect x="5.1764" y="28.01877" transform="scale(0.99999,0.99999) rotate(-45)" width="17.416" height="6.188" fill="#ff9800"/><rect x="-25.68411" y="-34.20279" transform="matrix(-0.7071997569841559,0.7070997860402667,-0.7070997860402667,-0.7071997569841559,0,0)" width="3.094" height="6.188" fill="#b0bec5"/><path d="M23.472,16.152l-1.472,5.848l5.848,-1.472z" fill="#ffc107"/><path d="M22.744,19.044l-0.744,2.956l2.956,-0.744z" fill="#37474f"/></g><g><g fill="#2196f3"><path d="M38,28l0,-3l-7,5l7,5l0,-3c3.3,0 6,2.7 6,6c0,3.3 -2.7,6 -6,6c-3.3,0 -6,-2.7 -6,-6c0,-0.3 0,-0.6 0.1,-0.9l-3.4,-2.7c-0.4,1.1 -0.7,2.3 -0.7,3.6c0,5.5 4.5,10 10,10c5.5,0 10,-4.5 10,-10c0,-5.5 -4.5,-10 -10,-10z"/></g><path d="M27.16571,36.5c0,-5.98361 4.85067,-10.83429 10.83429,-10.83429c5.98361,0 10.83429,4.85067 10.83429,10.83429c0,5.98361 -4.85067,10.83429 -10.83429,10.83429c-5.98361,0 -10.83429,-4.85067 -10.83429,-10.83429z" fill="#ff0000" opacity="0"/></g></g></g></g></svg>